<svg xmlns="http://www.w3.org/2000/svg" xmlns:xlink="http://www.w3.org/1999/xlink" width="261" zoomAndPan="magnify" viewBox="0 0 195.75 49.499998" height="66" preserveAspectRatio="xMidYMid meet" version="1.2"><defs><clipPath id="799368d540"><path d="M 0.855469 0 L 194.648438 0 L 194.648438 49.003906 L 0.855469 49.003906 Z M 0.855469 0 "/></clipPath><clipPath id="293f97b0f2"><path d="M 124.640625 19.824219 L 129.324219 19.824219 L 129.324219 24.703125 L 124.640625 24.703125 Z M 124.640625 19.824219 "/></clipPath></defs><g id="b5f31005fc"><g clip-rule="nonzero" clip-path="url(#799368d540)"><path style=" stroke:none;fill-rule:nonzero;fill:#ffffff;fill-opacity:1;" d="M 0.855469 0 L 194.648438 0 L 194.648438 49.003906 L 0.855469 49.003906 Z M 0.855469 0 "/><path style=" stroke:none;fill-rule:nonzero;fill:#000000;fill-opacity:1;" d="M 0.855469 0 L 194.648438 0 L 194.648438 49.003906 L 0.855469 49.003906 Z M 0.855469 0 "/></g><g clip-rule="nonzero" clip-path="url(#293f97b0f2)"><path style=" stroke:none;fill-rule:nonzero;fill:#ffffff;fill-opacity:1;" d="M 125.308594 24.605469 Z M 129.324219 23.5625 C 129.324219 23.574219 129.324219 23.582031 129.324219 23.59375 C 129.324219 23.59375 129.320312 23.59375 129.320312 23.59375 C 129.3125 23.632812 129.296875 23.679688 129.277344 23.722656 C 129.253906 23.765625 129.230469 23.800781 129.191406 23.828125 C 129.191406 23.828125 129.191406 23.828125 129.1875 23.832031 C 129.15625 23.886719 129.113281 23.929688 129.066406 23.96875 C 129.019531 24.007812 128.96875 24.039062 128.921875 24.074219 L 128.917969 24.074219 C 128.878906 24.097656 128.824219 24.148438 128.765625 24.203125 C 128.707031 24.257812 128.644531 24.3125 128.582031 24.347656 C 128.539062 24.375 128.492188 24.390625 128.449219 24.390625 C 128.425781 24.390625 128.398438 24.386719 128.378906 24.375 C 128.355469 24.363281 128.332031 24.347656 128.3125 24.324219 C 128.179688 24.179688 128.023438 24.054688 127.871094 23.929688 C 127.71875 23.800781 127.566406 23.667969 127.445312 23.503906 C 127.433594 23.484375 127.40625 23.457031 127.371094 23.421875 C 127.335938 23.386719 127.292969 23.34375 127.25 23.296875 C 127.167969 23.214844 127.078125 23.121094 127.015625 23.03125 C 126.851562 23.191406 126.671875 23.335938 126.527344 23.515625 C 126.429688 23.648438 126.316406 23.769531 126.199219 23.882812 C 126.09375 23.992188 126.007812 24.121094 125.886719 24.222656 C 125.789062 24.304688 125.6875 24.386719 125.589844 24.472656 L 125.59375 24.472656 C 125.59375 24.472656 125.589844 24.472656 125.589844 24.472656 C 125.570312 24.488281 125.546875 24.515625 125.519531 24.539062 C 125.496094 24.5625 125.46875 24.585938 125.4375 24.601562 C 125.417969 24.613281 125.394531 24.617188 125.371094 24.617188 C 125.351562 24.617188 125.328125 24.613281 125.308594 24.605469 C 125.1875 24.550781 125.097656 24.457031 125.007812 24.367188 C 124.972656 24.335938 124.910156 24.28125 124.851562 24.21875 C 124.789062 24.15625 124.726562 24.082031 124.6875 24.007812 C 124.660156 23.957031 124.640625 23.910156 124.640625 23.859375 C 124.640625 23.835938 124.648438 23.8125 124.65625 23.789062 C 124.667969 23.765625 124.683594 23.746094 124.707031 23.730469 C 124.871094 23.558594 125.015625 23.363281 125.199219 23.199219 C 125.242188 23.148438 125.277344 23.09375 125.316406 23.039062 C 125.355469 22.984375 125.394531 22.929688 125.445312 22.878906 C 125.496094 22.824219 125.554688 22.777344 125.609375 22.730469 C 125.667969 22.683594 125.726562 22.636719 125.773438 22.582031 C 125.851562 22.5 125.925781 22.410156 126.011719 22.332031 L 126.011719 22.328125 C 126.050781 22.300781 126.089844 22.261719 126.128906 22.226562 C 125.996094 22.085938 125.878906 21.933594 125.738281 21.808594 C 125.417969 21.5 125.082031 21.207031 124.769531 20.890625 C 124.761719 20.882812 124.753906 20.875 124.746094 20.871094 C 124.734375 20.867188 124.71875 20.863281 124.707031 20.855469 C 124.695312 20.847656 124.683594 20.835938 124.671875 20.820312 L 124.671875 20.816406 C 124.660156 20.789062 124.65625 20.761719 124.65625 20.734375 C 124.65625 20.691406 124.667969 20.652344 124.683594 20.617188 C 124.703125 20.578125 124.726562 20.542969 124.75 20.511719 C 124.804688 20.445312 124.867188 20.386719 124.921875 20.339844 C 124.953125 20.3125 124.988281 20.292969 125.023438 20.28125 C 125.058594 20.265625 125.09375 20.253906 125.125 20.242188 C 125.167969 20.207031 125.210938 20.167969 125.257812 20.128906 C 125.304688 20.09375 125.351562 20.054688 125.410156 20.035156 C 125.445312 20.019531 125.488281 20.007812 125.53125 20.007812 C 125.53125 20.007812 125.535156 20.007812 125.539062 20.007812 C 125.539062 20.007812 125.542969 20.007812 125.542969 20.007812 C 125.585938 20.023438 125.621094 20.050781 125.648438 20.082031 C 125.679688 20.113281 125.703125 20.148438 125.726562 20.179688 C 125.789062 20.265625 125.867188 20.339844 125.945312 20.414062 C 126.101562 20.558594 126.273438 20.6875 126.429688 20.839844 C 126.5 20.898438 126.582031 20.953125 126.648438 21.03125 C 126.6875 21.078125 126.71875 21.128906 126.753906 21.171875 C 126.792969 21.21875 126.828125 21.265625 126.875 21.300781 C 126.898438 21.324219 126.929688 21.347656 126.960938 21.375 C 127.019531 21.300781 127.089844 21.230469 127.160156 21.164062 C 127.234375 21.09375 127.308594 21.023438 127.363281 20.945312 C 127.582031 20.679688 127.824219 20.4375 128.0625 20.195312 L 128.066406 20.195312 C 128.121094 20.144531 128.183594 20.101562 128.238281 20.054688 C 128.292969 20.003906 128.34375 19.953125 128.382812 19.894531 L 128.382812 19.890625 C 128.398438 19.871094 128.417969 19.851562 128.4375 19.84375 C 128.460938 19.832031 128.480469 19.828125 128.503906 19.828125 C 128.535156 19.828125 128.5625 19.835938 128.59375 19.851562 C 128.621094 19.867188 128.644531 19.886719 128.667969 19.910156 C 128.789062 20.015625 128.90625 20.128906 128.996094 20.265625 C 129.03125 20.304688 129.078125 20.351562 129.125 20.40625 C 129.167969 20.457031 129.210938 20.515625 129.238281 20.578125 C 129.257812 20.621094 129.265625 20.664062 129.265625 20.707031 C 129.265625 20.722656 129.265625 20.738281 129.261719 20.757812 L 129.261719 20.761719 C 129.179688 20.921875 129.058594 21.0625 128.933594 21.1875 C 128.707031 21.386719 128.464844 21.566406 128.253906 21.777344 C 128.164062 21.886719 128.085938 22.007812 127.976562 22.105469 C 128.003906 22.121094 128.027344 22.140625 128.050781 22.160156 C 128.441406 22.46875 128.78125 22.839844 129.097656 23.21875 C 129.160156 23.292969 129.222656 23.367188 129.273438 23.453125 C 129.289062 23.46875 129.304688 23.484375 129.3125 23.5 C 129.320312 23.519531 129.324219 23.542969 129.324219 23.5625 Z M 129.089844 23.511719 C 129.023438 23.414062 128.933594 23.332031 128.839844 23.257812 C 128.738281 23.175781 128.628906 23.101562 128.535156 23.011719 C 128.289062 22.78125 128.070312 22.527344 127.832031 22.292969 C 127.8125 22.273438 127.785156 22.253906 127.761719 22.230469 C 127.75 22.226562 127.742188 22.21875 127.734375 22.214844 C 127.722656 22.207031 127.714844 22.195312 127.710938 22.1875 C 127.699219 22.164062 127.691406 22.140625 127.691406 22.117188 C 127.691406 22.105469 127.695312 22.09375 127.699219 22.082031 C 127.703125 22.0625 127.710938 22.046875 127.71875 22.03125 C 127.730469 22.015625 127.742188 22.003906 127.753906 21.992188 C 127.777344 21.972656 127.804688 21.953125 127.828125 21.9375 C 128.019531 21.753906 128.234375 21.601562 128.441406 21.441406 C 128.492188 21.398438 128.53125 21.351562 128.574219 21.300781 C 128.617188 21.25 128.65625 21.195312 128.703125 21.148438 C 128.835938 21.007812 128.957031 20.886719 129.082031 20.746094 C 128.972656 20.664062 128.863281 20.582031 128.769531 20.476562 C 128.714844 20.410156 128.667969 20.335938 128.621094 20.265625 C 128.578125 20.199219 128.535156 20.132812 128.480469 20.078125 C 128.308594 20.257812 128.132812 20.429688 127.984375 20.628906 C 127.847656 20.785156 127.6875 20.921875 127.550781 21.070312 C 127.402344 21.246094 127.253906 21.425781 127.09375 21.59375 L 127.089844 21.597656 C 127.074219 21.609375 127.058594 21.628906 127.042969 21.652344 C 127.027344 21.675781 127.011719 21.699219 126.984375 21.71875 C 126.96875 21.730469 126.949219 21.738281 126.925781 21.738281 C 126.921875 21.738281 126.917969 21.734375 126.914062 21.734375 C 126.914062 21.734375 126.910156 21.734375 126.910156 21.734375 C 126.898438 21.730469 126.886719 21.726562 126.878906 21.71875 C 126.871094 21.710938 126.863281 21.703125 126.859375 21.695312 C 126.851562 21.691406 126.84375 21.683594 126.835938 21.675781 C 126.730469 21.550781 126.597656 21.445312 126.5 21.304688 C 126.359375 21.160156 126.230469 21.007812 126.117188 20.84375 C 125.925781 20.632812 125.703125 20.445312 125.503906 20.234375 C 125.425781 20.328125 125.34375 20.421875 125.246094 20.5 C 125.203125 20.542969 125.148438 20.570312 125.101562 20.601562 C 125.050781 20.628906 125 20.65625 124.957031 20.691406 C 124.933594 20.710938 124.910156 20.730469 124.886719 20.75 C 125.066406 20.914062 125.273438 21.042969 125.457031 21.207031 C 125.636719 21.394531 125.828125 21.570312 126.015625 21.753906 C 126.078125 21.824219 126.144531 21.894531 126.222656 21.949219 L 126.226562 21.949219 C 126.253906 21.96875 126.285156 21.992188 126.316406 22.015625 C 126.347656 22.039062 126.378906 22.066406 126.398438 22.101562 C 126.410156 22.121094 126.417969 22.148438 126.417969 22.171875 C 126.421875 22.1875 126.425781 22.203125 126.425781 22.21875 C 126.425781 22.238281 126.421875 22.253906 126.414062 22.273438 C 126.371094 22.347656 126.316406 22.410156 126.253906 22.46875 C 126.195312 22.527344 126.132812 22.582031 126.074219 22.636719 C 125.898438 22.824219 125.710938 23 125.546875 23.195312 C 125.417969 23.371094 125.238281 23.480469 125.070312 23.605469 C 124.992188 23.671875 124.921875 23.746094 124.847656 23.820312 C 124.894531 23.863281 124.953125 23.898438 125.011719 23.933594 C 125.074219 23.972656 125.140625 24.011719 125.195312 24.066406 C 125.28125 24.160156 125.371094 24.25 125.441406 24.359375 C 125.527344 24.277344 125.605469 24.1875 125.683594 24.09375 C 125.765625 23.996094 125.847656 23.894531 125.945312 23.804688 C 126.019531 23.726562 126.109375 23.664062 126.195312 23.601562 C 126.28125 23.542969 126.367188 23.480469 126.433594 23.398438 C 126.578125 23.242188 126.722656 23.089844 126.84375 22.917969 L 126.847656 22.917969 C 126.867188 22.894531 126.886719 22.867188 126.902344 22.835938 C 126.921875 22.804688 126.941406 22.769531 126.96875 22.742188 C 126.988281 22.726562 127.007812 22.710938 127.035156 22.703125 L 127.039062 22.703125 C 127.058594 22.703125 127.074219 22.707031 127.089844 22.710938 C 127.105469 22.71875 127.117188 22.726562 127.125 22.738281 C 127.144531 22.757812 127.152344 22.78125 127.152344 22.804688 C 127.394531 22.980469 127.59375 23.191406 127.796875 23.40625 C 127.910156 23.511719 128.039062 23.609375 128.125 23.75 C 128.238281 23.886719 128.332031 24.042969 128.460938 24.160156 C 128.640625 23.964844 128.800781 23.746094 129.019531 23.582031 C 129.023438 23.578125 129.027344 23.578125 129.03125 23.574219 C 129.046875 23.550781 129.066406 23.527344 129.089844 23.511719 Z M 129.089844 23.511719 "/></g><g style="fill:#ffffff;fill-opacity:1;"><g transform="translate(78.551555, 26.988882)"><path style="stroke:none" d="M 4.546875 0 L 2.3125 0 L 2.3125 -4.015625 L 0.21875 -4.015625 L 0.21875 -5.328125 L 6.640625 -5.328125 L 6.640625 -4.015625 L 4.546875 -4.015625 Z M 4.546875 0 "/></g></g><g style="fill:#ffffff;fill-opacity:1;"><g transform="translate(85.410886, 26.988882)"><path style="stroke:none" d="M 7.875 0 L 5.765625 0 C 5.660156 -0.132812 5.59375 -0.304688 5.5625 -0.515625 C 5.519531 -0.671875 5.460938 -0.828125 5.390625 -0.984375 C 5.328125 -1.140625 5.207031 -1.269531 5.03125 -1.375 C 4.863281 -1.476562 4.613281 -1.53125 4.28125 -1.53125 L 2.828125 -1.53125 L 2.828125 0 L 0.59375 0 L 0.59375 -5.328125 L 4.234375 -5.328125 C 5.097656 -5.328125 5.796875 -5.257812 6.328125 -5.125 C 6.867188 -5 7.257812 -4.796875 7.5 -4.515625 C 7.75 -4.242188 7.875 -3.882812 7.875 -3.4375 C 7.875 -3.0625 7.785156 -2.742188 7.609375 -2.484375 C 7.441406 -2.234375 7.175781 -2.035156 6.8125 -1.890625 C 7.164062 -1.742188 7.394531 -1.566406 7.5 -1.359375 C 7.601562 -1.148438 7.671875 -0.925781 7.703125 -0.6875 C 7.722656 -0.46875 7.78125 -0.238281 7.875 0 Z M 2.828125 -2.859375 L 4.109375 -2.859375 C 4.460938 -2.859375 4.742188 -2.875 4.953125 -2.90625 C 5.160156 -2.9375 5.3125 -2.976562 5.40625 -3.03125 C 5.507812 -3.09375 5.570312 -3.15625 5.59375 -3.21875 C 5.625 -3.289062 5.640625 -3.363281 5.640625 -3.4375 C 5.640625 -3.507812 5.625 -3.578125 5.59375 -3.640625 C 5.570312 -3.710938 5.507812 -3.773438 5.40625 -3.828125 C 5.3125 -3.890625 5.160156 -3.9375 4.953125 -3.96875 C 4.742188 -4 4.460938 -4.015625 4.109375 -4.015625 L 2.828125 -4.015625 Z M 2.828125 -2.859375 "/></g></g><g style="fill:#ffffff;fill-opacity:1;"><g transform="translate(93.581886, 26.988882)"><path style="stroke:none" d="M 4.03125 0.109375 C 2.707031 0.109375 1.738281 -0.160156 1.125 -0.703125 C 0.570312 -1.179688 0.296875 -1.832031 0.296875 -2.65625 C 0.296875 -3.488281 0.570312 -4.144531 1.125 -4.625 C 1.738281 -5.164062 2.707031 -5.4375 4.03125 -5.4375 C 5.351562 -5.4375 6.320312 -5.164062 6.9375 -4.625 C 7.488281 -4.144531 7.765625 -3.488281 7.765625 -2.65625 C 7.765625 -1.832031 7.488281 -1.179688 6.9375 -0.703125 C 6.320312 -0.160156 5.351562 0.109375 4.03125 0.109375 Z M 4.03125 -1.3125 C 4.570312 -1.3125 4.96875 -1.46875 5.21875 -1.78125 C 5.425781 -2.03125 5.53125 -2.320312 5.53125 -2.65625 C 5.53125 -3 5.425781 -3.296875 5.21875 -3.546875 C 4.96875 -3.859375 4.570312 -4.015625 4.03125 -4.015625 C 3.488281 -4.015625 3.09375 -3.859375 2.84375 -3.546875 C 2.632812 -3.296875 2.53125 -3 2.53125 -2.65625 C 2.53125 -2.320312 2.632812 -2.03125 2.84375 -1.78125 C 3.09375 -1.46875 3.488281 -1.3125 4.03125 -1.3125 Z M 4.03125 -1.3125 "/></g></g><g style="fill:#ffffff;fill-opacity:1;"><g transform="translate(101.645129, 26.988882)"><path style="stroke:none" d="M 3.75 0.109375 C 2.445312 0.109375 1.53125 -0.15625 1 -0.6875 C 0.550781 -1.144531 0.328125 -1.800781 0.328125 -2.65625 L 0.328125 -5.328125 L 2.578125 -5.328125 L 2.578125 -2.65625 C 2.578125 -2.289062 2.640625 -2 2.765625 -1.78125 C 2.941406 -1.46875 3.269531 -1.3125 3.75 -1.3125 C 4.226562 -1.3125 4.554688 -1.46875 4.734375 -1.78125 C 4.867188 -2 4.9375 -2.289062 4.9375 -2.65625 L 4.9375 -5.328125 L 7.171875 -5.328125 L 7.171875 -2.625 C 7.171875 -1.789062 6.945312 -1.144531 6.5 -0.6875 C 5.96875 -0.15625 5.050781 0.109375 3.75 0.109375 Z M 3.75 0.109375 "/></g></g><g style="fill:#ffffff;fill-opacity:1;"><g transform="translate(109.14729, 26.988882)"><path style="stroke:none" d="M 2.828125 0 L 0.59375 0 L 0.59375 -5.328125 L 4.234375 -5.328125 C 5.097656 -5.328125 5.796875 -5.257812 6.328125 -5.125 C 6.867188 -5 7.257812 -4.796875 7.5 -4.515625 C 7.75 -4.242188 7.875 -3.882812 7.875 -3.4375 C 7.875 -2.988281 7.75 -2.625 7.5 -2.34375 C 7.257812 -2.0625 6.867188 -1.851562 6.328125 -1.71875 C 5.796875 -1.59375 5.097656 -1.53125 4.234375 -1.53125 L 2.828125 -1.53125 Z M 2.828125 -2.859375 L 4.109375 -2.859375 C 4.460938 -2.859375 4.742188 -2.867188 4.953125 -2.890625 C 5.160156 -2.921875 5.3125 -2.960938 5.40625 -3.015625 C 5.507812 -3.066406 5.570312 -3.128906 5.59375 -3.203125 C 5.625 -3.273438 5.640625 -3.351562 5.640625 -3.4375 C 5.640625 -3.519531 5.625 -3.59375 5.59375 -3.65625 C 5.570312 -3.726562 5.507812 -3.789062 5.40625 -3.84375 C 5.3125 -3.894531 5.160156 -3.9375 4.953125 -3.96875 C 4.742188 -4 4.460938 -4.015625 4.109375 -4.015625 L 2.828125 -4.015625 Z M 2.828125 -2.859375 "/></g></g><g style="fill:#ffffff;fill-opacity:1;"><g transform="translate(117.31829, 26.988882)"><path style="stroke:none" d="M 7.015625 0 L 0.59375 0 L 0.59375 -5.328125 L 6.71875 -5.328125 L 6.71875 -4.015625 L 2.828125 -4.015625 L 2.828125 -3.171875 L 6.125 -3.171875 L 6.125 -2.15625 L 2.828125 -2.15625 L 2.828125 -1.3125 L 7.015625 -1.3125 Z M 7.015625 0 "/></g></g></g></svg>