<svg xmlns="http://www.w3.org/2000/svg" xmlns:xlink="http://www.w3.org/1999/xlink" width="65" zoomAndPan="magnify" viewBox="0 0 48.75 48.75" height="65" preserveAspectRatio="xMidYMid meet" version="1.2"><defs><clipPath id="fe19e6ba5b"><path d="M 0 0 L 48.5 0 L 48.5 48.5 L 0 48.5 Z M 0 0 "/></clipPath><clipPath id="a0254ea784"><path d="M 35.257812 21.925781 L 37.585938 21.925781 L 37.585938 24.351562 L 35.257812 24.351562 Z M 35.257812 21.925781 "/></clipPath></defs><g id="b37eb7848f"><g clip-rule="nonzero" clip-path="url(#fe19e6ba5b)"><path style=" stroke:none;fill-rule:nonzero;fill:#ffffff;fill-opacity:1;" d="M 0 0 L 48.5 0 L 48.5 48.5 L 0 48.5 Z M 0 0 "/><path style=" stroke:none;fill-rule:nonzero;fill:#000000;fill-opacity:1;" d="M 0 0 L 48.5 0 L 48.5 48.5 L 0 48.5 Z M 0 0 "/></g><g clip-rule="nonzero" clip-path="url(#a0254ea784)"><path style=" stroke:none;fill-rule:nonzero;fill:#ffffff;fill-opacity:1;" d="M 35.585938 24.300781 Z M 37.585938 23.785156 C 37.585938 23.789062 37.582031 23.792969 37.582031 23.796875 C 37.582031 23.796875 37.582031 23.800781 37.582031 23.800781 C 37.578125 23.820312 37.570312 23.839844 37.558594 23.863281 C 37.550781 23.882812 37.535156 23.902344 37.519531 23.914062 C 37.515625 23.914062 37.515625 23.917969 37.515625 23.917969 C 37.5 23.945312 37.480469 23.964844 37.457031 23.984375 C 37.433594 24.003906 37.40625 24.019531 37.382812 24.039062 C 37.363281 24.050781 37.335938 24.074219 37.304688 24.101562 C 37.277344 24.128906 37.246094 24.15625 37.214844 24.175781 C 37.191406 24.1875 37.171875 24.195312 37.148438 24.195312 C 37.136719 24.195312 37.125 24.191406 37.113281 24.1875 C 37.101562 24.179688 37.089844 24.171875 37.082031 24.160156 C 37.015625 24.089844 36.9375 24.027344 36.863281 23.964844 C 36.785156 23.902344 36.710938 23.835938 36.652344 23.753906 C 36.644531 23.746094 36.628906 23.730469 36.613281 23.710938 C 36.59375 23.695312 36.574219 23.675781 36.550781 23.652344 C 36.511719 23.609375 36.46875 23.5625 36.4375 23.519531 C 36.355469 23.597656 36.265625 23.671875 36.195312 23.757812 C 36.144531 23.824219 36.089844 23.886719 36.03125 23.945312 C 35.980469 23.996094 35.9375 24.0625 35.875 24.109375 C 35.828125 24.152344 35.777344 24.195312 35.726562 24.234375 L 35.730469 24.234375 C 35.730469 24.234375 35.726562 24.234375 35.726562 24.234375 C 35.71875 24.242188 35.707031 24.257812 35.695312 24.269531 C 35.679688 24.28125 35.667969 24.292969 35.652344 24.300781 C 35.640625 24.304688 35.628906 24.308594 35.617188 24.308594 C 35.609375 24.308594 35.597656 24.304688 35.585938 24.300781 C 35.527344 24.273438 35.480469 24.230469 35.4375 24.183594 C 35.421875 24.167969 35.390625 24.140625 35.359375 24.109375 C 35.328125 24.078125 35.296875 24.042969 35.277344 24.003906 C 35.265625 23.980469 35.257812 23.957031 35.257812 23.929688 C 35.257812 23.917969 35.257812 23.90625 35.265625 23.894531 C 35.269531 23.886719 35.277344 23.875 35.289062 23.867188 C 35.371094 23.78125 35.441406 23.683594 35.53125 23.601562 C 35.554688 23.578125 35.574219 23.550781 35.59375 23.523438 C 35.609375 23.496094 35.628906 23.46875 35.65625 23.445312 C 35.679688 23.417969 35.710938 23.394531 35.738281 23.371094 C 35.765625 23.347656 35.792969 23.324219 35.820312 23.296875 C 35.859375 23.253906 35.894531 23.210938 35.9375 23.171875 C 35.957031 23.15625 35.976562 23.136719 35.996094 23.117188 C 35.929688 23.046875 35.871094 22.972656 35.800781 22.910156 C 35.640625 22.757812 35.476562 22.613281 35.320312 22.453125 C 35.316406 22.453125 35.3125 22.449219 35.308594 22.445312 C 35.300781 22.445312 35.292969 22.441406 35.289062 22.4375 C 35.28125 22.433594 35.277344 22.425781 35.273438 22.417969 L 35.269531 22.417969 C 35.265625 22.402344 35.265625 22.390625 35.265625 22.378906 C 35.265625 22.355469 35.269531 22.335938 35.277344 22.320312 C 35.285156 22.300781 35.296875 22.28125 35.308594 22.265625 C 35.335938 22.234375 35.367188 22.203125 35.394531 22.179688 C 35.410156 22.167969 35.429688 22.160156 35.445312 22.152344 C 35.464844 22.144531 35.480469 22.140625 35.496094 22.132812 C 35.515625 22.117188 35.539062 22.097656 35.5625 22.078125 C 35.585938 22.058594 35.609375 22.039062 35.636719 22.027344 C 35.65625 22.019531 35.675781 22.015625 35.699219 22.015625 C 35.699219 22.015625 35.699219 22.015625 35.703125 22.015625 C 35.726562 22.023438 35.742188 22.039062 35.757812 22.054688 C 35.769531 22.070312 35.785156 22.085938 35.796875 22.101562 C 35.828125 22.144531 35.863281 22.183594 35.90625 22.21875 C 35.984375 22.289062 36.066406 22.355469 36.144531 22.429688 C 36.179688 22.457031 36.222656 22.488281 36.253906 22.523438 C 36.273438 22.546875 36.289062 22.574219 36.308594 22.59375 C 36.324219 22.617188 36.34375 22.640625 36.367188 22.660156 C 36.378906 22.671875 36.394531 22.683594 36.410156 22.695312 C 36.4375 22.65625 36.472656 22.625 36.507812 22.589844 C 36.542969 22.554688 36.582031 22.519531 36.609375 22.480469 C 36.71875 22.347656 36.839844 22.230469 36.957031 22.109375 C 36.988281 22.085938 37.015625 22.0625 37.042969 22.039062 C 37.070312 22.015625 37.097656 21.988281 37.117188 21.960938 L 37.117188 21.957031 C 37.125 21.949219 37.132812 21.9375 37.144531 21.933594 C 37.152344 21.929688 37.164062 21.925781 37.175781 21.925781 C 37.191406 21.925781 37.207031 21.929688 37.21875 21.9375 C 37.234375 21.945312 37.246094 21.957031 37.257812 21.964844 C 37.316406 22.019531 37.375 22.074219 37.421875 22.144531 C 37.4375 22.164062 37.460938 22.1875 37.484375 22.214844 C 37.507812 22.238281 37.527344 22.269531 37.542969 22.300781 C 37.550781 22.320312 37.554688 22.339844 37.554688 22.363281 C 37.554688 22.371094 37.554688 22.378906 37.554688 22.386719 L 37.554688 22.390625 L 37.550781 22.390625 C 37.511719 22.472656 37.453125 22.542969 37.390625 22.601562 C 37.277344 22.703125 37.15625 22.789062 37.050781 22.894531 C 37.007812 22.949219 36.96875 23.011719 36.914062 23.058594 C 36.925781 23.066406 36.941406 23.078125 36.953125 23.085938 C 37.144531 23.238281 37.3125 23.421875 37.472656 23.613281 C 37.5 23.648438 37.535156 23.6875 37.558594 23.730469 C 37.566406 23.734375 37.574219 23.742188 37.578125 23.753906 C 37.582031 23.761719 37.585938 23.773438 37.585938 23.785156 Z M 37.464844 23.757812 C 37.433594 23.710938 37.390625 23.667969 37.34375 23.632812 C 37.292969 23.589844 37.238281 23.554688 37.191406 23.511719 C 37.070312 23.394531 36.960938 23.269531 36.84375 23.152344 C 36.832031 23.140625 36.820312 23.132812 36.808594 23.121094 C 36.800781 23.117188 36.796875 23.117188 36.792969 23.113281 C 36.789062 23.109375 36.785156 23.105469 36.78125 23.097656 C 36.777344 23.089844 36.773438 23.078125 36.773438 23.066406 C 36.773438 23.058594 36.773438 23.054688 36.773438 23.046875 C 36.777344 23.039062 36.78125 23.027344 36.785156 23.023438 C 36.789062 23.015625 36.796875 23.007812 36.804688 23.003906 C 36.816406 22.992188 36.828125 22.984375 36.839844 22.976562 C 36.9375 22.882812 37.042969 22.808594 37.144531 22.726562 C 37.167969 22.707031 37.191406 22.683594 37.210938 22.65625 C 37.230469 22.632812 37.25 22.605469 37.273438 22.582031 C 37.339844 22.511719 37.402344 22.453125 37.464844 22.382812 C 37.410156 22.34375 37.355469 22.300781 37.308594 22.25 C 37.28125 22.214844 37.257812 22.179688 37.234375 22.144531 C 37.210938 22.109375 37.191406 22.078125 37.164062 22.050781 C 37.078125 22.140625 36.992188 22.226562 36.917969 22.324219 C 36.847656 22.402344 36.769531 22.46875 36.703125 22.542969 C 36.628906 22.632812 36.554688 22.722656 36.476562 22.804688 L 36.472656 22.804688 C 36.464844 22.8125 36.457031 22.824219 36.449219 22.832031 C 36.441406 22.84375 36.433594 22.855469 36.421875 22.867188 C 36.414062 22.871094 36.402344 22.875 36.390625 22.875 C 36.390625 22.875 36.386719 22.875 36.386719 22.875 C 36.386719 22.875 36.382812 22.875 36.382812 22.875 C 36.378906 22.875 36.371094 22.871094 36.367188 22.867188 C 36.363281 22.863281 36.359375 22.859375 36.359375 22.855469 C 36.355469 22.851562 36.351562 22.847656 36.347656 22.84375 C 36.296875 22.78125 36.230469 22.730469 36.179688 22.660156 C 36.109375 22.589844 36.046875 22.515625 35.988281 22.433594 C 35.894531 22.324219 35.785156 22.234375 35.683594 22.128906 C 35.644531 22.175781 35.605469 22.222656 35.558594 22.261719 C 35.535156 22.28125 35.507812 22.296875 35.484375 22.3125 C 35.457031 22.324219 35.433594 22.339844 35.414062 22.355469 C 35.402344 22.367188 35.390625 22.375 35.378906 22.386719 C 35.464844 22.46875 35.570312 22.53125 35.660156 22.613281 L 35.664062 22.613281 C 35.75 22.707031 35.847656 22.792969 35.9375 22.882812 C 35.972656 22.917969 36.003906 22.953125 36.042969 22.980469 C 36.058594 22.992188 36.074219 23 36.089844 23.011719 C 36.105469 23.023438 36.121094 23.039062 36.128906 23.058594 C 36.136719 23.066406 36.136719 23.078125 36.140625 23.089844 C 36.140625 23.097656 36.140625 23.105469 36.140625 23.113281 C 36.140625 23.125 36.140625 23.132812 36.136719 23.140625 L 36.136719 23.144531 C 36.117188 23.179688 36.089844 23.210938 36.058594 23.238281 C 36.027344 23.269531 35.996094 23.296875 35.96875 23.324219 C 35.882812 23.417969 35.789062 23.503906 35.707031 23.601562 C 35.644531 23.6875 35.550781 23.742188 35.46875 23.804688 C 35.429688 23.839844 35.394531 23.875 35.359375 23.914062 C 35.382812 23.933594 35.410156 23.949219 35.441406 23.96875 C 35.472656 23.988281 35.503906 24.007812 35.53125 24.035156 C 35.574219 24.078125 35.617188 24.125 35.652344 24.179688 C 35.695312 24.140625 35.734375 24.09375 35.773438 24.046875 C 35.816406 23.996094 35.855469 23.949219 35.902344 23.902344 C 35.941406 23.863281 35.984375 23.835938 36.027344 23.804688 C 36.070312 23.773438 36.113281 23.742188 36.148438 23.703125 C 36.21875 23.625 36.289062 23.546875 36.351562 23.464844 L 36.351562 23.460938 C 36.363281 23.453125 36.371094 23.4375 36.382812 23.421875 C 36.390625 23.40625 36.398438 23.390625 36.414062 23.375 C 36.421875 23.367188 36.433594 23.359375 36.445312 23.355469 L 36.449219 23.355469 C 36.457031 23.355469 36.464844 23.355469 36.472656 23.359375 C 36.480469 23.363281 36.488281 23.367188 36.492188 23.375 C 36.5 23.382812 36.503906 23.394531 36.503906 23.40625 C 36.625 23.496094 36.722656 23.597656 36.824219 23.707031 C 36.882812 23.757812 36.945312 23.808594 36.988281 23.875 C 37.042969 23.945312 37.089844 24.023438 37.15625 24.082031 C 37.242188 23.984375 37.324219 23.875 37.433594 23.792969 C 37.433594 23.792969 37.4375 23.789062 37.4375 23.789062 C 37.445312 23.777344 37.457031 23.765625 37.464844 23.757812 Z M 37.464844 23.757812 "/></g><g style="fill:#ffffff;fill-opacity:1;"><g transform="translate(12.341757, 25.486779)"><path style="stroke:none" d="M 2.265625 0 L 1.140625 0 L 1.140625 -2 L 0.109375 -2 L 0.109375 -2.65625 L 3.296875 -2.65625 L 3.296875 -2 L 2.265625 -2 Z M 2.265625 0 "/></g></g><g style="fill:#ffffff;fill-opacity:1;"><g transform="translate(15.751967, 25.486779)"><path style="stroke:none" d="M 3.90625 0 L 2.859375 0 C 2.816406 -0.0625 2.785156 -0.144531 2.765625 -0.25 C 2.742188 -0.332031 2.710938 -0.410156 2.671875 -0.484375 C 2.640625 -0.566406 2.582031 -0.632812 2.5 -0.6875 C 2.414062 -0.738281 2.289062 -0.765625 2.125 -0.765625 L 1.40625 -0.765625 L 1.40625 0 L 0.296875 0 L 0.296875 -2.65625 L 2.109375 -2.65625 C 2.535156 -2.65625 2.878906 -2.617188 3.140625 -2.546875 C 3.410156 -2.484375 3.601562 -2.382812 3.71875 -2.25 C 3.84375 -2.113281 3.90625 -1.929688 3.90625 -1.703125 C 3.90625 -1.515625 3.863281 -1.359375 3.78125 -1.234375 C 3.695312 -1.109375 3.566406 -1.007812 3.390625 -0.9375 C 3.566406 -0.863281 3.679688 -0.773438 3.734375 -0.671875 C 3.785156 -0.566406 3.816406 -0.457031 3.828125 -0.34375 C 3.835938 -0.226562 3.863281 -0.113281 3.90625 0 Z M 1.40625 -1.421875 L 2.046875 -1.421875 C 2.222656 -1.421875 2.359375 -1.425781 2.453125 -1.4375 C 2.554688 -1.457031 2.632812 -1.476562 2.6875 -1.5 C 2.738281 -1.53125 2.769531 -1.5625 2.78125 -1.59375 C 2.789062 -1.632812 2.796875 -1.671875 2.796875 -1.703125 C 2.796875 -1.742188 2.789062 -1.78125 2.78125 -1.8125 C 2.769531 -1.84375 2.738281 -1.875 2.6875 -1.90625 C 2.632812 -1.9375 2.554688 -1.957031 2.453125 -1.96875 C 2.359375 -1.988281 2.222656 -2 2.046875 -2 L 1.40625 -2 Z M 1.40625 -1.421875 "/></g></g><g style="fill:#ffffff;fill-opacity:1;"><g transform="translate(19.814292, 25.486779)"><path style="stroke:none" d="M 2 0.0625 C 1.34375 0.0625 0.863281 -0.0703125 0.5625 -0.34375 C 0.28125 -0.582031 0.140625 -0.910156 0.140625 -1.328125 C 0.140625 -1.734375 0.28125 -2.054688 0.5625 -2.296875 C 0.863281 -2.566406 1.34375 -2.703125 2 -2.703125 C 2.65625 -2.703125 3.140625 -2.566406 3.453125 -2.296875 C 3.722656 -2.054688 3.859375 -1.734375 3.859375 -1.328125 C 3.859375 -0.910156 3.722656 -0.582031 3.453125 -0.34375 C 3.140625 -0.0703125 2.65625 0.0625 2 0.0625 Z M 2 -0.65625 C 2.269531 -0.65625 2.46875 -0.734375 2.59375 -0.890625 C 2.695312 -1.015625 2.75 -1.160156 2.75 -1.328125 C 2.75 -1.492188 2.695312 -1.640625 2.59375 -1.765625 C 2.46875 -1.921875 2.269531 -2 2 -2 C 1.726562 -2 1.53125 -1.921875 1.40625 -1.765625 C 1.3125 -1.640625 1.265625 -1.492188 1.265625 -1.328125 C 1.265625 -1.160156 1.3125 -1.015625 1.40625 -0.890625 C 1.53125 -0.734375 1.726562 -0.65625 2 -0.65625 Z M 2 -0.65625 "/></g></g><g style="fill:#ffffff;fill-opacity:1;"><g transform="translate(23.823044, 25.486779)"><path style="stroke:none" d="M 1.859375 0.0625 C 1.210938 0.0625 0.757812 -0.0703125 0.5 -0.34375 C 0.28125 -0.570312 0.171875 -0.898438 0.171875 -1.328125 L 0.171875 -2.640625 L 1.28125 -2.640625 L 1.28125 -1.328125 C 1.28125 -1.140625 1.3125 -0.992188 1.375 -0.890625 C 1.457031 -0.734375 1.617188 -0.65625 1.859375 -0.65625 C 2.097656 -0.65625 2.265625 -0.734375 2.359375 -0.890625 C 2.421875 -0.992188 2.453125 -1.140625 2.453125 -1.328125 L 2.453125 -2.640625 L 3.5625 -2.640625 L 3.5625 -1.3125 C 3.5625 -0.894531 3.453125 -0.570312 3.234375 -0.34375 C 2.960938 -0.0703125 2.503906 0.0625 1.859375 0.0625 Z M 1.859375 0.0625 "/></g></g><g style="fill:#ffffff;fill-opacity:1;"><g transform="translate(27.552846, 25.486779)"><path style="stroke:none" d="M 1.40625 0 L 0.296875 0 L 0.296875 -2.65625 L 2.109375 -2.65625 C 2.535156 -2.65625 2.878906 -2.617188 3.140625 -2.546875 C 3.410156 -2.484375 3.601562 -2.382812 3.71875 -2.25 C 3.84375 -2.113281 3.90625 -1.929688 3.90625 -1.703125 C 3.90625 -1.484375 3.84375 -1.300781 3.71875 -1.15625 C 3.601562 -1.019531 3.410156 -0.921875 3.140625 -0.859375 C 2.878906 -0.796875 2.535156 -0.765625 2.109375 -0.765625 L 1.40625 -0.765625 Z M 1.40625 -1.421875 L 2.046875 -1.421875 C 2.222656 -1.421875 2.359375 -1.425781 2.453125 -1.4375 C 2.554688 -1.457031 2.632812 -1.476562 2.6875 -1.5 C 2.738281 -1.53125 2.769531 -1.5625 2.78125 -1.59375 C 2.789062 -1.625 2.796875 -1.660156 2.796875 -1.703125 C 2.796875 -1.742188 2.789062 -1.78125 2.78125 -1.8125 C 2.769531 -1.851562 2.738281 -1.882812 2.6875 -1.90625 C 2.632812 -1.9375 2.554688 -1.957031 2.453125 -1.96875 C 2.359375 -1.988281 2.222656 -2 2.046875 -2 L 1.40625 -2 Z M 1.40625 -1.421875 "/></g></g><g style="fill:#ffffff;fill-opacity:1;"><g transform="translate(31.615171, 25.486779)"><path style="stroke:none" d="M 3.484375 0 L 0.296875 0 L 0.296875 -2.65625 L 3.34375 -2.65625 L 3.34375 -2 L 1.40625 -2 L 1.40625 -1.578125 L 3.046875 -1.578125 L 3.046875 -1.0625 L 1.40625 -1.0625 L 1.40625 -0.65625 L 3.484375 -0.65625 Z M 3.484375 0 "/></g></g></g></svg>